/* XPM */
static char *_[] = {
/* columns rows colors chars-per-pixel */
"32 32 159 2 ",
"   c #372619",
".  c #38271A",
"X  c #3B291B",
"o  c #3D2A1C",
"O  c #3F2C1D",
"+  c #3F2C1E",
"@  c #3F2D1E",
"#  c #402D1E",
"$  c #402E1F",
"%  c #422E20",
"&  c #443021",
"*  c #453121",
"=  c #453122",
"-  c #463222",
";  c #483223",
":  c #4A3424",
">  c #4A3524",
",  c #4B3725",
"<  c #4D3626",
"1  c #4E3826",
"2  c #4F3A27",
"3  c #503A27",
"4  c #503A28",
"5  c #513A29",
"6  c #533B2A",
"7  c #553C2B",
"8  c #553F2B",
"9  c #563F2C",
"0  c #57402C",
"q  c #57412C",
"w  c #58412D",
"e  c #5B412F",
"r  c #5D432F",
"t  c #5C4330",
"y  c #5E4331",
"u  c #5F4331",
"i  c #5F4532",
"p  c #604532",
"a  c #634734",
"s  c #634834",
"d  c #654835",
"f  c #664A36",
"g  c #674A37",
"h  c #684B36",
"j  c #694B38",
"k  c #694C38",
"l  c #6C4F3A",
"z  c #6F4F3B",
"x  c #70523B",
"c  c #71513D",
"v  c #72523D",
"b  c #72523E",
"n  c #73553C",
"m  c #75543F",
"M  c #74593E",
"N  c #765B3F",
"B  c #765540",
"V  c #765541",
"C  c #7B5B41",
"Z  c #7A5943",
"A  c #7A5A42",
"S  c #7A5A43",
"D  c #785C40",
"F  c #795D41",
"G  c #7C5C43",
"H  c #7D5B44",
"J  c #7E5C44",
"K  c #7E5D44",
"L  c #7F5D44",
"P  c #7E5D45",
"I  c #7F5E44",
"U  c #7E5F44",
"Y  c #7F5C46",
"T  c #805E45",
"R  c #815F45",
"E  c #805F46",
"W  c #826045",
"Q  c #836145",
"!  c #816046",
"~  c #826147",
"^  c #836147",
"/  c #826347",
"(  c #836248",
")  c #846348",
"_  c #866348",
"`  c #87664A",
"'  c #89654A",
"]  c #88644B",
"[  c #88664A",
"{  c #8A674A",
"}  c #8A654C",
"|  c #8A644D",
" . c #8C674D",
".. c #8E674E",
"X. c #8A684C",
"o. c #8F6B4D",
"O. c #8E694E",
"+. c #8E684F",
"@. c #8F6B4E",
"#. c #8F6A4F",
"$. c #906850",
"%. c #916951",
"&. c #926A51",
"*. c #936B52",
"=. c #946E50",
"-. c #946C53",
";. c #956C53",
":. c #956D53",
">. c #966D53",
",. c #956F53",
"<. c #966E53",
"1. c #966D54",
"2. c #966E54",
"3. c #976E54",
"4. c #986F54",
"5. c #986F55",
"6. c #977155",
"7. c #997253",
"8. c #9A7155",
"9. c #9A7254",
"0. c #9A7157",
"q. c #997256",
"w. c #9A7256",
"e. c #9B7256",
"r. c #9D7557",
"t. c #9E7457",
"y. c #9C7358",
"u. c #9D7359",
"i. c #9D7558",
"p. c #9D7459",
"a. c #9E7459",
"s. c #9E7559",
"d. c #9F755A",
"f. c #9F765A",
"g. c #A0775A",
"h. c #A1775B",
"j. c #A2775B",
"k. c #A2785A",
"l. c #A3795A",
"z. c #A3795B",
"x. c #A67B5B",
"c. c #A2785C",
"v. c #A3795C",
"b. c #A47A5C",
"n. c #A57A5D",
"m. c #A77C5C",
"M. c #A67C5D",
"N. c #A77C5D",
"B. c #A87D5C",
"V. c #A87E5C",
"C. c #A97E5D",
"Z. c #A87D5E",
"A. c #A97E5E",
"S. c #AA7F5E",
"D. c #AC805F",
"F. c #AD825F",
"G. c #AE825F",
"H. c #AF8360",
"J. c #B08460",
/* pixels */
"                                                                ",
"  . @ $ & & & & & & & & & & & & & & & & & & & & & & & & $ @ .   ",
"  @ D / c.N.J.J.J.J.J.N.c.c.c.H.H.c.c.c.N.J.A.c.c.c.c.c./ D @   ",
"  $ / ` 6.r.A.A.A.A.A.g.i.i.i.N.N.i.i.i.g.A.k.i.i.i.0.6.) U $   ",
"  & c.6.D / $.$.$.$.$.$.$.$.$.$.$.$.$.$.$.$.$.$.$.$./ D } $.%   ",
"  & N.i./ A z z z z z z z z z z z z z z z z z z z z U ] #.$.%   ",
"  & J.A.$.z                                         A c.,.$.%   ",
"  & A.k.$.z   < a t q i a a a w w a w   > n x z 4   U A.,.$.%   ",
"  & c.i.$.z   a $./ D ] $.$.$.D D $.U   r J.A.c.z   / J.4.$.%   ",
"  & A.k.$.z   a $./ D #.0.$.$.D M t s A ] A.A.A.x   U A.,.$.%   ",
"  & J.A.$.z   a $./ D ,.c.$.$.D M   2 J.F.c.A.J.n   A c.,.$.%   ",
"  & J.A.$.z   k y.` D  .1.$.$.4 3 ] #.N.n.c.i.0.h   A c.,.$.%   ",
"  & J.A.$.z   z c.X.D ] $.$.$.o @ J.F.c.c.c.0.$.a   A c.,.$.%   ",
"  & n.i.$.z   d $.( D ] $.7 ; ,.7.,.4.c.i.$.v ; @   E F.1.$.%   ",
"  & c.i.$.z   a $./ D ] $.;   A.F.$.$.c.y.$.j       / J.4.$.%   ",
"  & c.i.$.z   a $./ D 2 o ,.A.c.c.g.i.$.B o t } p   / J.4.$.%   ",
"  & c.i.$.z   a $.E M 2 @ 0.H.n.c.g.y.} v X p $.a   / H.4.$.%   ",
"  & J.A.$.z   a $.t   ] J.n.c.H.F.$.U   > D / $.a   A c.,.$.%   ",
"  & F.x.$.z   w U a 2 #.F.g.i.A.N.U m ; 9 D ( $.d   A c.,.$.%   ",
"  & c.i.$.z       A J.N.c.$.$.$.}   ; $.] D X.c.z   A c.,.$.%   ",
"  & c.i.$.z   > r ) x.k.c.$.$.B v 4 t $.] D ` y.k   H N.,.$.%   ",
"  & c.i.$.z   n J.r.$.y.c.$.$.o o $.$.$.] D / $.a   / J.4.$.%   ",
"  & c.i.$.z   x A.0.$.1.0.v j 7 q $.$.4.#.D / $.a   U A.1.$.%   ",
"  & c.i.$.z   z c.4.$.$.$.;   M D $.$.c.,.D / $.a   A c.,.$.%   ",
"  & c.i.$.z   4 z d a a a @   7 w a d z d q t a <   A c.,.$.%   ",
"  & c.i.$.z                                         A c.,.$.%   ",
"  & c.0./ U A A A U / G A A A A A / / / E A A A A A / ] #.$.%   ",
"  & c.6.D ] c.c.c.A.J.N.c.c.c.c.c.J.J.J.F.c.c.c.c.c.] D } $.%   ",
"  $ / ) }  .,.,.,.,.4.,.,.,.,.,.,.4.4.4.1.,.,.,.,.,. .} / U $   ",
"  @ D U $.$.$.$.$.$.$.$.$.$.$.$.$.$.$.$.$.$.$.$.$.$.$.$.U D @   ",
"  . @ $ % % % % % % % % % % % % % % % % % % % % % % % % $ @ .   ",
"                                                                "
};
