/* XPM */
static char *result[] = {
/* columns rows colors chars-per-pixel */
"32 32 124 2 ",
"   c #020202",
".  c #090403",
"X  c #060508",
"o  c #01080B",
"O  c #0B0B0B",
"+  c #120E0D",
"@  c #1C0B08",
"#  c #1D110F",
"$  c #000A11",
"%  c #0F0F10",
"&  c #141314",
"*  c #1F1210",
"=  c #151718",
"-  c #1C1C1C",
";  c #21070C",
":  c #241714",
">  c #281915",
",  c #221C1B",
"<  c #341812",
"1  c #331F1C",
"2  c #36211D",
"3  c #1F1F20",
"4  c #11222A",
"5  c #212121",
"6  c #2C2525",
"7  c #2C2C2C",
"8  c #3D2521",
"9  c #2F2F31",
"0  c #302E31",
"q  c #333333",
"w  c #363639",
"e  c #3C3C3C",
"r  c #4C101E",
"t  c #4F1E1C",
"y  c #49241B",
"u  c #52261C",
"i  c #442924",
"p  c #4C2E27",
"a  c #5B332C",
"s  c #5D3C34",
"d  c #623B33",
"f  c #693F36",
"g  c #6F433A",
"h  c #363F41",
"j  c #454545",
"k  c #4C4443",
"l  c #464549",
"z  c #48474C",
"x  c #4D4E4E",
"c  c #535357",
"v  c #5B5353",
"b  c #57575A",
"n  c #52585F",
"m  c #585858",
"M  c #7C4B41",
"N  c #5E5C64",
"B  c #626466",
"V  c #63626A",
"C  c #68686D",
"Z  c #6D6B72",
"A  c #757477",
"S  c #77777A",
"D  c #7E7E7E",
"F  c #821A33",
"G  c #8A1B37",
"H  c #8A3F2B",
"J  c #9F462A",
"K  c #864430",
"L  c #9D4A35",
"P  c #A35336",
"I  c #AE593B",
"U  c #B4553C",
"Y  c #B95E3D",
"T  c #C62749",
"R  c #855147",
"E  c #93594E",
"W  c #B24140",
"Q  c #BC4C43",
"!  c #F5505A",
"~  c #CB6246",
"^  c #D96547",
"/  c #DF6A4B",
"(  c #E16E4E",
")  c #E1724A",
"_  c #FF9167",
"`  c #777680",
"'  c #7B7983",
"]  c #828286",
"[  c #82818A",
"{  c #8D8C8F",
"}  c #8D8C93",
"|  c #8F8D98",
" . c #929395",
".. c #96959B",
"X. c #9A999D",
"o. c #A6A5A9",
"O. c #AAAAAE",
"+. c #ACABB3",
"@. c #B2B1B6",
"#. c #B4B3BA",
"$. c #B8B6BC",
"%. c #BCBBBE",
"&. c #BDBCC2",
"*. c #C0BFC5",
"=. c #C2C1C5",
"-. c #C5C4CA",
";. c #C8C7CC",
":. c #CAC9CD",
">. c #CDCDD2",
",. c #D0CFD4",
"<. c #D2D1D6",
"1. c #D5D4D9",
"2. c #D8D7DC",
"3. c #DEDDE2",
"4. c #E2E1E6",
"5. c #E6E5EA",
"6. c #E8E7ED",
"7. c #EAE9EE",
"8. c #ECEBF1",
"9. c #F1EFF4",
"0. c #F2F1F5",
"q. c #F6F6F9",
"w. c #F8F6FD",
"e. c #FEFEFF",
/* pixels */
"j j j j j 7 5 5 h e e e e p & 7 w 4 q z k 7 5 5 9 7 q e e e e e ",
"j j j k j 9 5 - q w 0 w h 7 w O.%.E $ z e 6 - - 6 7 q e e e e e ",
"l j j j j 7 & O X X 3 5 4 5 7 w q q 7 4 6 4 -   % O 9 e e e e e ",
"l l l j j - O C 3 h &.1.1.2.>.*.=.-.2.<.:.6.%.O B 9 % 7 e e e e ",
"l l k l q O j  .7 w #.>.4.5.5.0.>.4.4.6.;.q.;.X c D & - e e e e ",
"h s h h 7 O j ] 7 0 +.3.Z 6 5 A q.m 6 h *.0.&.  C X.& & 9 q q 9 ",
"e e e e 7 O h [ 7 9 +.7.B   S . j %.6 % ,.9.&.   .*.o & 7 7 7 7 ",
"e e e e 7 O j [ 7 9 +.>.3.7 +.h   j & O.1.9.=.   .*.. & 9 7 7 9 ",
"4 5 , 5 = O j [ 6 q +.;.<.8.]   j e +.7.$.e.:.  } &.X % 5 5 5 5 ",
"5 5 5 5 = O h [ 7 0 +.>.-.6.A e -.} 8.=.%.e.:.  X.;.  % 5 5 5 - ",
"7 7 7 7 - O j [ 7 0 +.;.-.<.#.6 & m 6.-.%.e.:.  #.7.  & 7 7 7 7 ",
"j j j j q & z } 7 q +.>.>.-.8.m   2.>.:.&.e.:.  ..<.X - j j j j ",
"j j l j j 5 & D 7 h *.6.4.4.4.4.3.8.3.4.4.e.>.O N w O 7 j j j j ",
"j e e e e j - & X & e z l l e e j q j j j e w X - . j e e j j e ",
"e e e e e j j q 7 6 0 0 w , 7 [  .B   q 7 9 q q 9 e e e e e e e ",
"e e e e e j j j h h e l l 0 6 v h k O e e j j j j j j e e e e e ",
"7 7 7 7 7 7 7 9 e e h h e q >   i a , 7 7 7 7 9 h e e e e e e e ",
"7 7 7 7 9 7 7 7 e e e p e q O p M   - 7 7 7 7 7 e e e e e e e e ",
"7 7 7 6 7 7 7 6 w q q q q 7 O i : : - 7 7 6 7 6 q q q q q q q q ",
"5 5 5 5 5 - 5 5 5 5 , 4 5 -   . E > - 5 5 5 - 5 5 5 5 5 5 5 5 5 ",
"3 3 3 3 5 5 5 , 5 5 5 5 5 5 O g >   = 5 5 5 - 5 5 5 5 5 5 5 5 5 ",
"e e e w w 5 - - 7 9 q e j e O   g i w e e 6 5 5 e e e j j j j j ",
"j j j j -   r t y y u < & x & s d   j j j 7 5 5 j j x m m m m m ",
"j j j j 7 O G ! ) ) ^ _ K 0 - > 2 2 e j j 7 5 5 j j j m m m m m ",
"m m m m m 9 O O = % % s H 5 - @ E + e j j 7 , 5 7 7 q j j j j x ",
"m m m m m q 5 - % % & = $ 5 - d # o e j j 7 5 5 7 7 q j j j j j ",
"x x x x x 7 5 o z V Z ' 0 6 -   K 8 q j j 7 5 5 7 7 q j j j j j ",
"e e e e e 7 - & z 5 6 5 = w % f s o 7 j j 7 5 5 7 q q e e e e e ",
"e e e e e 7 -   & & % % 5 w   @ o . 5 j j q 5 5 7 7 q e e e e e ",
"e e w e e 6 - @ T Q Y U ) I o n ] m & j j 7 5 , 7 7 7 e e e e e ",
"e e e e e 7 5 O F U P L ~ J 4 %.e.o.& j j 7 5 5 7 q q e e e e e ",
"e e e e e 6 5 5 - = - - 5 w O + = O 5 j j 7 , 5 7 7 7 e e e e e "
};
