/* XPM */
static char *result[] = {
/* columns rows colors chars-per-pixel */
"32 32 196 2 ",
"   c #202020",
".  c #2C2C2D",
"X  c #252728",
"o  c #312F2F",
"O  c #323232",
"+  c #3B3433",
"@  c #35393B",
"#  c #3C3C3C",
"$  c #31373A",
"%  c #453A37",
"&  c #493936",
"*  c #413F3F",
"=  c #493A37",
"-  c #613F3A",
";  c #42403F",
":  c #4A403F",
">  c #5A423F",
",  c #56403C",
"<  c #6B433E",
"1  c #74453B",
"2  c #2D3C4A",
"3  c #373D42",
"4  c #3B3E40",
"5  c #001E77",
"6  c #00247D",
"7  c #00297E",
"8  c #3B4144",
"9  c #3B444A",
"0  c #3C4A54",
"q  c #364956",
"w  c #3E515C",
"e  c #314F61",
"r  c #3A5568",
"t  c #385770",
"y  c #3F5D73",
"u  c #3E5E7B",
"i  c #464646",
"p  c #4C4442",
"a  c #454749",
"s  c #46494C",
"d  c #4C4C4C",
"f  c #544643",
"g  c #534B4A",
"h  c #584C49",
"j  c #444D53",
"k  c #4C5153",
"l  c #43515A",
"z  c #4E565C",
"x  c #4F585E",
"c  c #545252",
"v  c #5A5554",
"b  c #52585E",
"n  c #585858",
"m  c #51575D",
"M  c #654D4B",
"N  c #6B4C46",
"B  c #774F48",
"V  c #784D45",
"C  c #6D524B",
"Z  c #78524B",
"A  c #655956",
"S  c #795B56",
"D  c #7B635D",
"F  c #435563",
"G  c #445A6B",
"H  c #4E5E69",
"J  c #525B62",
"K  c #565E65",
"L  c #415E75",
"P  c #54626D",
"I  c #5B646C",
"U  c #4A6474",
"Y  c #44647D",
"T  c #4B657B",
"R  c #4A697F",
"E  c #546A7A",
"W  c #596B77",
"Q  c #5E717D",
"!  c #6F6766",
"~  c #62676C",
"^  c #AD0000",
"/  c #B30000",
"(  c #BB0100",
")  c #BB0D00",
"_  c #B71207",
"`  c #BD1404",
"'  c #BD1C04",
"]  c #B71A09",
"[  c #BC1D09",
"{  c #B5230D",
"}  c #BB230D",
"|  c #BC2107",
" . c #AD2A19",
".. c #BA2813",
"X. c #B62C1A",
"o. c #B52014",
"O. c #BA321B",
"+. c #B6301C",
"@. c #943C35",
"#. c #9A3429",
"$. c #AF2D21",
"%. c #A03827",
"&. c #AC3828",
"*. c #A93325",
"=. c #B03623",
"-. c #BA3A25",
";. c #A63F30",
":. c #C00700",
">. c #C10D00",
",. c #C31401",
"<. c #CD1100",
"1. c #C21901",
"2. c #D81400",
"3. c #C22B0F",
"4. c #C52B12",
"5. c #C23219",
"6. c #89473B",
"7. c #954B3D",
"8. c #954439",
"9. c #AD412D",
"0. c #BB412C",
"q. c #A04A38",
"w. c #A94839",
"e. c #B84D39",
"r. c #834D44",
"t. c #9E4D43",
"y. c #87544B",
"u. c #8D5449",
"i. c #895C53",
"p. c #995D52",
"a. c #AD5543",
"s. c #A05C4E",
"d. c #A25443",
"f. c #B45945",
"g. c #85635A",
"h. c #846964",
"j. c #9C6B60",
"k. c #002C82",
"l. c #003486",
"z. c #003489",
"x. c #003C8C",
"c. c #003F92",
"v. c #00418F",
"b. c #0C458B",
"n. c #004492",
"m. c #004B94",
"M. c #004E99",
"N. c #01549C",
"B. c #04599E",
"V. c #0E5A9B",
"C. c #0D5697",
"Z. c #125A95",
"A. c #1E5F97",
"S. c #145C9A",
"D. c #295683",
"F. c #285D87",
"G. c #245892",
"H. c #1B6197",
"J. c #15619D",
"K. c #1D649B",
"L. c #2B648F",
"P. c #3C6585",
"I. c #3E6C8D",
"U. c #356689",
"Y. c #3F708D",
"T. c #236194",
"R. c #296292",
"E. c #23659B",
"W. c #266C9E",
"Q. c #2C6896",
"!. c #316796",
"~. c #3B6C93",
"^. c #356E99",
"/. c #356B91",
"(. c #3C759C",
"). c #3B7096",
"_. c #0055A0",
"`. c #045BA0",
"'. c #0F67A6",
"]. c #0562A5",
"[. c #1465A4",
"{. c #1A65A4",
"}. c #1668A7",
"|. c #1868A6",
" X c #136BAB",
".X c #256CA1",
"XX c #337BA6",
"oX c #446683",
"OX c #426D8C",
"+X c #426C87",
"@X c #546F83",
"#X c #5B7489",
"$X c #457495",
"%X c #4A7595",
"&X c #46759A",
"*X c #49779C",
/* pixels */
"i i i i i .     # # * M u.w.X.] ,.g H I I l     . . O # # # # # ",
"i i i i i .     g u.X.( ^ / :.( f.k n.m.l.(.% & . . o # # # # # ",
"i i i i i .   B ` / / 4.w.i.C M # XXc._.c.I.V ( r.. O # # # # # ",
"i i a i i + #./ / -.Z # 4 i i i m v.N.B.n.OXf / / *.i # # # # # ",
"i i i a v  ./ ) y.# # # F I.Z.W OXn.`.B.v.(.  1 ` / o.v # # # # ",
"; 4 4 a X.^ ] & O O Y C.x.6 [.P m.N.N.B.n.&X    g { / ] ; O O O ",
"# # # 9.^ ] +   0 Z.k.n.R.L s %Xn.N.N.B.n.+Xt e # i X./ =.. . . ",
"# # i.^ ) p   l n.7 G.J # # s v.m.E.~.M.n.oXR.k.W # p ) / u.. . ",
"  o ` / 1   8 v.k.P.        ~.x.x.G Y x.n.Y F 7 l.0   N / ) O   ",
"  r.^ O.    J.6 P.        # v.M.M.  oXv.x.I.  Y 6 N.    9.^ 7.  ",
"o } / N . R 5 H.O o o O o U.v.v.F.  ~.c.n.~.O O R.5 Y.. f / 1.O ",
"S / 4.i i B.l.I n n n n ~ m.N.m.8   ~.n.n.%Xn n n x.N.s i 5.^ i.",
"p.^ a.i P l.W.i n n v n *Xv.v.W.    I.v.c.&Xn v i ^.7 E i s.^ d.",
"q.^ y.* OXk.@Xi i i i K m.N.x.#X    L.x.n.&Xd d i Q 7 ^.* S / =.",
"X.( M # K.x.K i # # # %Xx.m.S.i     4 V.k.%Xi i i b n.J.# h >...",
"| ,.f # |.m.J i # # k n.N.v.#Xp     O a b..Xi i i z m.'.# p 1.' ",
"[ 1.& . |.m.9 . # # I.x.N.`.G 0 2 q S.G @ @Xo . # j m. X# = 1.1.",
"X.( - o A.v.j . # s m.N.`.B.M.m._.m.m.c.L o o . # j n.[.# g ,...",
"9.^ Z . U.7 T . O OXx.B.N.M.N.M.M.M.N.`.k.F.X X O H k.Q.O C / =.",
"1 ^ 8.  0 k.T.  . m.N.N.N.S.V.V.S.V.N.c.R.4       /.7 r   6.^ 8.",
"f / 3.    B.x.@ G x.`.n.G . . . . . {.D.w U     $ x.N.X   O./ N ",
": 1./ C @ OXl.l H.N.m.J.i # @ # a a I T l.{.    !.5 $Xi A ( ' g ",
"i s.^ 0.a # F Y n.`.x.#Xn d i i n n n !.G.@X  L 7 N.k v e.^ a.n ",
"i c ` / g..   m.M.N.N.n n d i i n n n s i . t l.z.W d h./ ) ! n ",
"n n j./ >.@ y x.`.x.$Xs i i i i a a i i m D.l.l.U o ; ] / s.i i ",
"n n n } 2.# ].M._.C.E V.G.E J x z J H I.m.k.V.q . o =.^ X.i i i ",
"d k c D D I.k.m.z.).J M.x.z.m.m.m.m.x.l._.U.X   %  .^ ` v i a i ",
"# # # # # .XE..XA.j . o r U.Z.}.}.S.R.T a .   - } ^ _ A # # # # ",
"# # # # ; . . M h p p . . + # # . . O a i > *./ / =.f # # # # # ",
"# # # # # .   7.<.( ( O.t.B h p % = B 7.0.( / ` 8.. O # # # # # ",
"# # # # # .     f @.[ / ^ / ,.1.1.>.( / / 1.8.% . . O # # # # # ",
"# # # # # X     . . + N 8.&...' ' } *.t.S +     . . o @ # # # # "
};
