/* XPM */
static char *result[] = {
/* columns rows colors chars-per-pixel */
"32 32 215 2 ",
"   c #040000",
".  c #080909",
"X  c #000014",
"o  c #000912",
"O  c #10151D",
"+  c #2B1708",
"@  c #3C2303",
"#  c #2C2217",
"$  c #3A2917",
"%  c #03092C",
"&  c #0D1428",
"*  c #030A39",
"=  c #06183B",
"-  c #141C33",
";  c #161C3A",
":  c #1C1D26",
">  c #241626",
",  c #1F232F",
"<  c #19203A",
"1  c #202020",
"2  c #2C2C2C",
"3  c #342A24",
"4  c #242B3C",
"5  c #292D3E",
"6  c #343434",
"7  c #3C3C3C",
"8  c #3A3635",
"9  c #3B3727",
"0  c #462B03",
"q  c #582B06",
"w  c #4C3408",
"e  c #5C3807",
"r  c #522F17",
"t  c #45381A",
"y  c #683907",
"u  c #473B29",
"i  c #413E39",
"p  c #6C3835",
"a  c #5C461A",
"s  c #634300",
"d  c #684B08",
"f  c #774700",
"g  c #694618",
"h  c #764A16",
"j  c #7C591A",
"k  c #7A520B",
"l  c #7E6219",
"z  c #594A2A",
"x  c #544C3A",
"c  c #6B5A23",
"v  c #6E5321",
"b  c #68593A",
"n  c #6D502E",
"m  c #7D6E32",
"M  c #0B1C44",
"N  c #0A1C4B",
"B  c #021148",
"V  c #020955",
"C  c #051954",
"Z  c #000745",
"A  c #0F214A",
"S  c #13214D",
"D  c #0F2250",
"F  c #182A58",
"G  c #242C47",
"H  c #2E3441",
"J  c #393C44",
"K  c #393B4A",
"L  c #242F5D",
"P  c #2B385C",
"I  c #343D52",
"U  c #343D59",
"Y  c #000863",
"T  c #001C6A",
"R  c #1F2C71",
"E  c #1A3377",
"W  c #1A3268",
"Q  c #243763",
"!  c #263D74",
"~  c #363566",
"^  c #423F5F",
"/  c #433249",
"(  c #3F4147",
")  c #3C485B",
"_  c #3B4565",
"`  c #384675",
"'  c #464646",
"]  c #44434C",
"[  c #4E4D4D",
"{  c #4C4849",
"}  c #514D42",
"|  c #54524E",
" . c #5B554A",
".. c #444954",
"X. c #454650",
"o. c #4C505B",
"O. c #545454",
"+. c #585755",
"@. c #585859",
"#. c #5A5856",
"$. c #665F4C",
"%. c #665A54",
"&. c #714F4D",
"*. c #6A6349",
"=. c #77684D",
"-. c #656257",
";. c #7F6C58",
":. c #494662",
">. c #5C5D65",
",. c #575768",
"<. c #585A7C",
"1. c #645F60",
"2. c #654F68",
"3. c #5C6177",
"4. c #61616F",
"5. c #656473",
"6. c #74726D",
"7. c #865708",
"8. c #995817",
"9. c #8D4E0E",
"0. c #AB5717",
"q. c #8F6C0C",
"w. c #987002",
"e. c #956412",
"r. c #8F6C19",
"t. c #AB7701",
"y. c #AF7212",
"u. c #895D22",
"i. c #866A28",
"p. c #986629",
"a. c #9B7C2A",
"s. c #9F7435",
"d. c #A46B23",
"f. c #A77926",
"g. c #B47F3B",
"h. c #B0762C",
"j. c #D3701E",
"k. c #C27F28",
"l. c #876B48",
"z. c #877652",
"x. c #877848",
"c. c #857863",
"v. c #738C72",
"b. c #AD8D1E",
"n. c #B2911E",
"m. c #BCA014",
"M. c #BB8224",
"N. c #B08B32",
"B. c #ABA72D",
"V. c #C99300",
"C. c #D49C06",
"Z. c #CAAE1E",
"A. c #EABB17",
"S. c #C0852D",
"D. c #D39325",
"F. c #D49E32",
"G. c #CB9032",
"H. c #CBAE2E",
"J. c #D8AB27",
"K. c #E0B320",
"L. c #E5B936",
"P. c #E78F0F",
"I. c #F5C817",
"U. c #FFFB13",
"Y. c #E7C528",
"T. c #EDC838",
"R. c #F9D936",
"E. c #F5D033",
"W. c #F6F13D",
"Q. c #988344",
"!. c #A28C53",
"~. c #ADA052",
"^. c #9E9673",
"/. c #A28466",
"(. c #C69A48",
"). c #EBB257",
"_. c #C1887F",
"`. c #FAD447",
"'. c #FFE248",
"]. c #FFFE43",
"[. c #F9D672",
"{. c #FDDB68",
"}. c #0F2B86",
"|. c #2339AD",
" X c #543383",
".X c #27458A",
"XX c #33478C",
"oX c #344C96",
"OX c #3A4BB4",
"+X c #274FBA",
"@X c #444F95",
"#X c #425998",
"$X c #46518D",
"%X c #4D628F",
"&X c #516194",
"*X c #686783",
"=X c #6B6C95",
"-X c #4158B2",
";X c #7555BA",
":X c #4D64A8",
">X c #5274B8",
",X c #6873B6",
"<X c #5B39E3",
"1X c #683FFD",
"2X c #657ADE",
"3X c #9B6C86",
"4X c #6986DA",
"5X c #5B88FF",
"6X c #818798",
"7X c #A78A85",
"8X c #B9A18E",
"9X c #8485A2",
"0X c #8496DC",
"qX c #92A7EC",
"wX c #9192EF",
/* pixels */
"' ' ' ' ' 2 1 1 7 7 7 7 7 x ' ' 7 7 7 ' ' 2 # 1 2 2 6 7 7 7 7 7 ",
"' ' ' ' ' 6 1 1 7 7 7 7 7 J ' ' 7 7 x ' ' 2 , 1 2 2 6 ' %.=.{ 7 ",
"' ' ' ' ' 2 1 , 7 7 7 7 7 ( ' ' 7 7 J ( ' 2 : x 2 2 6 c.l.s.=.x ",
"' ' ' ' ' 3 1 1 7 7 7 7 7 ( ' ' 7 7 7 ' ' 2 =.g ( ) ;.r.d.h.f *.",
"' ' ' ' ' 2 1 1 7 7 7 7 7 O.#X@X7 7 i ' #.Q.t.Q oXl.d.(.D.y.y g ",
"7 ' 7 7 7 2 1 1 6 6 6 7 ' ^.o./ -. .;.~.R.D.h.d.F.k.g.y.0.8.y z ",
"7 7 7 7 7 1 1 1 2 2 *.-.z.p  X:.8 b.Y.I.(.7X)./.6.!.S.d.u.y @ z ",
"7 7 7 7 7 2 1 1 2 z.t.K.Y.;X1X}.% B.W.{.&.;.[.j.q h u.g r @ +  .",
", 1 1 1 1 1 1 , 1 H.R.W.U.8X<XV o H.E.F.7X/ 9.).g.8.0 + 3 # { # ",
"# ) 7 1 1 1 i.Q.%X!.I.].].T.M.1 u G.0.A.[.3Xn v.v 0 x 2 : 1 , : ",
"X.N = ) @.Q.7.t.6X5XS.P.'.M.M.f.j u.M.R.Z.&.>.q u 8 2 2 2 2 2 2 ",
"<.X B C >X/.y 0 b +XK 9.L.`.e.i.a.p.E.E.f $ W 1.] ' ' ' ' ( ( x ",
"5.< ,.$X` O     0 K P @.7.T.'.M.a.u.b.q.@ 4 D >.' ' ' ' ' ' ' ' ",
"' o.i ( ' 8 7 x %.' ' { 6.e m.e.d j q $ F T * *.{ ' ' i 7 7 7 ( ",
"7 7 7 7 7 ' ' ' 7 7 7 ' ' >.> $ v k 3 T E 5 i.d #.' ( 7 7 7 i 7 ",
"7 7 7 7 7 ' ' ' 7 7 ( ' ' ' 3.|.T u l b c n.r.@ b O.' 7 7 7 7 7 ",
"2 2 2 2 2 2 2 2 7 7 7 7 7 6 6 6.z c I.w.e f.e.h 0 z ' 7 7 7 7 7 ",
"2 2 2 2 2 2 2 2 7 7 7 7 7 6 2 *.m d z ` ^ { J.y.d s *.7 7 7 7 7 ",
"2 2 1 2 2 2 1 2 6 6 6 2 6 2 >.4X2X:.oXXXN -X*Xn z 4 ' 6 6 6 6 6 ",
"1 1 1 1 , # 1 1 1 1 1 1 : 6 qXqX<.S A & :.wX$X:X:XV K 1 1 1 1 1 ",
"1 1 1 1 , 1 1 1 1 1 1 1 # >.4X,XS = * - # ,XoXoX.XB _ | 9 1 1 1 ",
"8 7 7 8 6 2 1 1 6 6 8 ' ' 6X&XS M M 5 : ( ( OX%XQ S P }.x.[ ' ' ",
"' ' ' ' ' 2 1 1 7 7 ' @.@.*XR O = 3 f $ [ 2 <.#XXXG Y } V.6.@.@.",
"' ' ' ' ' 2 1 1 7 7 ' @.@.{ 4.O . w 2 % +.2 # ( B B b C.w 3.@.@.",
"@.@.@.@.@.6 1 1 7 7 7 ' ' ' ' [ %.XXC X X.2 1 1 %.s w.a C x O.' ",
"@.@.@.@.@.2 1 1 7 7 ( ' ' ' ' ' ] =XC - @.2 1 1 2  .~ }.}.w *.' ",
"[ [ O.[ [ 2 1 1 7 6 7 ' 7 ' ' ( J i ' ] ' 2 1 1 2 2 ,X-X` C ) { ",
"7 7 7 7 7 2 1 1 2 2 2 2 2 8 7 7 2 2 6 ' ' 2 1 1 2 ...XE E F = [ ",
"7 7 7 7 7 2 1 1 2 2 2 2 2 8 7 7 2 2 6 ' ' 2 1 1 6 ` L U ` M [ 7 ",
"8 7 7 7 7 2 1 1 2 6 2 2 2 6 7 7 6 2 6 ' ' 2 1 1 2 U ; G - % @.7 ",
"7 7 7 7 8 2 1 1 2 2 2 2 2 7 7 7 6 2 6 ' ' 2 1 1 2 7 J K 5 J 7 7 ",
"7 7 7 7 7 , 1 1 2 2 2 2 2 6 7 J 2 2 8 ' ' 2 1 1 2 2 6 7 7 7 7 7 "
};
