/* XPM */
static char *result[] = {
/* columns rows colors chars-per-pixel */
"32 32 215 2 ",
"   c #040000",
".  c #080909",
"X  c #000014",
"o  c #000912",
"O  c #10151D",
"+  c #2B1708",
"@  c #3C2303",
"#  c #2C2217",
"$  c #3A2917",
"%  c #03092C",
"&  c #0D1428",
"*  c #030A39",
"=  c #07163A",
"-  c #041B3F",
";  c #141C33",
":  c #161C3A",
">  c #1C1D26",
",  c #241626",
"<  c #1F232F",
"1  c #19203A",
"2  c #202020",
"3  c #2C2C2C",
"4  c #342A24",
"5  c #242B3C",
"6  c #292D3E",
"7  c #343434",
"8  c #3C3C3C",
"9  c #383537",
"0  c #3B3727",
"q  c #462B03",
"w  c #582B06",
"e  c #4C3408",
"r  c #5C3807",
"t  c #522F17",
"y  c #45381A",
"u  c #683907",
"i  c #473B29",
"p  c #403F3E",
"a  c #6C3835",
"s  c #5D461A",
"d  c #634300",
"f  c #684B08",
"g  c #774700",
"h  c #694618",
"j  c #764A16",
"k  c #7C591A",
"l  c #7A520B",
"z  c #7E6219",
"x  c #574929",
"c  c #554C3A",
"v  c #624C2A",
"b  c #6B5A23",
"n  c #6E5321",
"m  c #68593A",
"M  c #735232",
"N  c #7D6E32",
"B  c #0B1C44",
"V  c #0A1C4B",
"C  c #021148",
"Z  c #020955",
"A  c #051954",
"S  c #000745",
"D  c #0F214A",
"F  c #13214D",
"G  c #0F2250",
"H  c #182A58",
"J  c #242C47",
"K  c #2E3544",
"L  c #363C4D",
"P  c #3B3B48",
"I  c #242F5D",
"U  c #333D55",
"Y  c #29365B",
"T  c #000863",
"R  c #011B6D",
"E  c #001E64",
"W  c #1F2C71",
"Q  c #1A3377",
"!  c #1A3268",
"~  c #243763",
"^  c #263D74",
"/  c #363566",
"(  c #423F5F",
")  c #433249",
"_  c #3D4149",
"`  c #3B4565",
"'  c #384675",
"]  c #454545",
"[  c #4D4C4C",
"{  c #4A474B",
"}  c #534D41",
"|  c #585549",
" . c #474955",
".. c #4C505B",
"X. c #555454",
"o. c #595859",
"O. c #595758",
"+. c #665E44",
"@. c #645854",
"#. c #714F4D",
"$. c #696359",
"%. c #67645A",
"&. c #796A56",
"*. c #69634A",
"=. c #494662",
"-. c #585966",
";. c #55597A",
":. c #645F60",
">. c #654F68",
",. c #666163",
"<. c #6F6F74",
"1. c #865708",
"2. c #995817",
"3. c #8D4E0E",
"4. c #AB5717",
"5. c #8F6C0C",
"6. c #987002",
"7. c #956412",
"8. c #8F6C19",
"9. c #AB7701",
"0. c #AF7212",
"q. c #895D22",
"w. c #866A28",
"e. c #986629",
"r. c #9B7C2A",
"t. c #9F7536",
"y. c #A46B23",
"u. c #A77926",
"i. c #B47F3B",
"p. c #B0762C",
"a. c #D3701E",
"s. c #C27F28",
"d. c #896D4A",
"f. c #877948",
"g. c #81734C",
"h. c #806F52",
"j. c #8B7957",
"k. c #877B65",
"l. c #738C72",
"z. c #AD8D1E",
"x. c #B2911E",
"c. c #BCA014",
"v. c #AB8D22",
"b. c #BB8224",
"n. c #BB8C34",
"m. c #ABA72D",
"M. c #C99300",
"N. c #D49C06",
"B. c #CAAE1E",
"V. c #EABB17",
"C. c #C0852D",
"Z. c #D39325",
"A. c #D49E32",
"S. c #CB9032",
"D. c #CBAE2E",
"F. c #D8AB27",
"G. c #E0B320",
"H. c #E5B936",
"J. c #E78F0F",
"K. c #F5C817",
"L. c #FFFB13",
"P. c #E7C528",
"I. c #EDC838",
"U. c #FACF34",
"Y. c #F9D936",
"T. c #F2D033",
"R. c #F6F13D",
"E. c #95834C",
"W. c #AA9D4F",
"Q. c #A48D4B",
"!. c #9D9672",
"~. c #A28466",
"^. c #C69A48",
"/. c #EBB257",
"(. c #C1887F",
"). c #FAD447",
"_. c #FFE248",
"`. c #FFFE43",
"'. c #F9D672",
"]. c #FDDB68",
"[. c #123187",
"{. c #0E2885",
"}. c #2339AD",
"|. c #543383",
" X c #27458A",
".X c #33478C",
"XX c #3D548F",
"oX c #344C96",
"OX c #3A4BB4",
"+X c #274FBA",
"@X c #444F95",
"#X c #425899",
"$X c #46518D",
"%X c #4D628F",
"&X c #516194",
"*X c #656685",
"=X c #6F6F8D",
"-X c #4158B2",
";X c #7555BA",
":X c #4D64A8",
">X c #5274B8",
",X c #6772B6",
"<X c #5B39E3",
"1X c #683FFD",
"2X c #657ADE",
"3X c #9B6C86",
"4X c #6986DA",
"5X c #5B88FF",
"6X c #82899A",
"7X c #A78A85",
"8X c #B9A18E",
"9X c #8485A2",
"0X c #8496DC",
"qX c #92A7EC",
"wX c #9192EF",
/* pixels */
"] ] { { ] 3 # < 8 8 8 8 8 ] ] ] 8 8 p ] ] 3 2 2 3 3 3 8 8 8 8 8 ",
"] X.h.@.[ 3 2 2 8 8 8 8 8 ) ] ] 8 8 p ] ] 3 2 2 3 3 7 8 8 8 8 8 ",
"{ j.t.d.k.3 2 2 | 8 8 8 8 _ _ ] 8 8 p ] ] 3 2 2 3 3 7 8 8 8 8 8 ",
"&.g u.y.7.&.L K x E.8 8 8 c ] ] 8 8 p ] ] 3 2 2 3 3 7 8 8 8 8 8 ",
"v u 0.Z.^.y.d.oX/ 9.Q.[ 9 ] ] ] XXXX[ ] ] 3 2 2 3 3 7 8 8 9 8 8 ",
"t u 2.4.p.i.C.S.y.s.Z.Y.W.g.%.&.P ..!.| ] 3 2 2 9 9 7 7 7 7 7 7 ",
"v q h q.0.C.n.<.k./.7XS.K.P.v.9 =.|.a j.%.+.2 2 8 8 9 3 3 3 3 3 ",
"@.+ @ e h q.j t a.'.h.>.].`.m.% {.1X;XT.G.9.g.2 8 8 9 3 3 3 3 3 ",
"2 } # 4 + e 7.i./.3.) 7XA.U.D.o Z <X8XL.`.U.D.2 < 2 2 2 2 2 2 2 ",
"2 2 2 2 < c q b l.M 3X'.G.4.S.0 2 n.H.`.`.K.Q.%XE.f.< < 2 8 _ 2 ",
"3 3 3 3 3 3 8 i w >.#.B.Y.b.z l u.u.b._.J.C.5X9X9.1.v.,.=.= D _ ",
"] ] { { ] ] ] ] @.! # g T.Y.e.r.w.4.U.H.3.U +Xm w d &.>XA = o %X",
"] ] ] ] ] ] ] ] -.G F q 5.x.q.u.C.Y.T.1.[ Y _ q     O ' $X-.1 <.",
"8 p 8 p ) ] ] [ *.* E G $ r k h 5.c.r ,.9 ]  .$.c p 8 _ ) p .._ ",
"8 8 8 8 8 _ ] X.f N 7 Q R 4 l n $ , -.8 8 ] ] ] _ ] c 9 8 8 8 8 ",
"8 8 8 8 8 c X.m @ 8.z.b c 8.i R }.=.2 8 8 ] ] ] ] ] _ 8 8 8 8 8 ",
"3 3 3 3 3 8 x q j 7.0.s 6.K.b x <.2 2 3 3 3 3 3 p p 8 8 8 8 8 8 ",
"3 3 3 3 3 m d h 6.F.] =.=.i f w.+.2 2 3 3 3 3 3 8 8 8 9 8 8 8 8 ",
"3 2 3 3 3 8 < x M *XOXA .X#X=.2X4Xo.2 3 3 2 3 2 7 7 7 7 3 7 7 7 ",
"2 2 2 2 2 _ A :X:X@XwX=.; V F ;.qXqX7 2 2 2 2 2 2 2 2 2 < 2 2 2 ",
"2 2 2 7 X.` C  X#XoX,X2 & * - D ,X0X-.# < 2 2 2 2 2 2 2 2 2 2 2 ",
"8 8 ] f.{.Y J ~ ;.OX..[ < 5 D - V #X6X9 8 2 2 2 8 8 8 ] c _ ] ] ",
"] ] $.M.c T H .X#X=X] o.$ g 4 = O W =X] ] 3 # 2 ] ] [ o.o.o.X.X.",
"] ] ;.e N.m * C o.8 ] ,.% 3 e . O <.X.{ ] 3 < 2 ] ] [ o.o.o.o.o.",
"X.%.c A y 6.d @.8 9 p  .o G .X-.| ] ] ] ] 3 2 2 3 3 7 ] ] ] ] ] ",
"X.&.@  X[./ c 2 8 8 p o.; A =X] ] ] ] ] ] 3 2 2 3 3 7 ] ] ] ] ] ",
"X.` A ' OX,X< 2 9 8 9 _ 8 ] _ ] 8 8 p ] ] 3 2 2 3 3 7 ] _ ] ] ] ",
" .: H Q Q  X_ 2 3 3 3 3 3 9 8 8 3 3 7 ] ] 3 2 2 3 3 7 8 8 8 8 8 ",
"8 { : ^ ` I ^ 2 3 3 7 3 3 9 8 8 3 3 7 ] ] 3 2 2 3 3 7 8 8 8 8 8 ",
"8 X.& ; K 1 L 3 3 3 3 3 3 9 8 8 7 3 7 ] ] 3 2 2 3 3 7 8 8 8 8 8 ",
"8 8 _ 5 P 6 3 2 3 3 3 3 3 9 8 8 3 3 7 ] ] 3 2 2 3 3 7 8 8 8 8 8 ",
"8 8 8 8 8 3 2 2 3 3 3 3 3 8 8 p 3 3 9 ] ] 3 2 2 3 3 3 8 8 8 8 8 "
};
