/* XPM */
static char *result[] = {
/* columns rows colors chars-per-pixel */
"32 32 214 2 ",
"   c #040000",
".  c #080909",
"X  c #000014",
"o  c #000912",
"O  c #10151D",
"+  c #2D1000",
"@  c #2A1E10",
"#  c #3C2303",
"$  c #292310",
"%  c #3A2917",
"&  c #03092C",
"*  c #0C1125",
"=  c #030A39",
"-  c #06183B",
";  c #131D33",
":  c #171D3A",
">  c #1C1D26",
",  c #241626",
"<  c #1F232F",
"1  c #202020",
"2  c #2C2C2C",
"3  c #372C27",
"4  c #242B3C",
"5  c #292D3E",
"6  c #333334",
"7  c #3C3C3C",
"8  c #3B3835",
"9  c #3B3727",
"0  c #462B03",
"q  c #582B06",
"w  c #4C3408",
"e  c #5C3807",
"r  c #4C3419",
"t  c #683907",
"y  c #483C29",
"u  c #403F3E",
"i  c #413D34",
"p  c #6C3835",
"a  c #5C451A",
"s  c #634300",
"d  c #684B08",
"f  c #774700",
"g  c #694618",
"h  c #764A16",
"j  c #7C591A",
"k  c #7A520B",
"l  c #7E6219",
"z  c #584929",
"x  c #4A453C",
"c  c #5D533B",
"v  c #584D39",
"b  c #6B5A23",
"n  c #6E5321",
"m  c #685939",
"M  c #6E502E",
"N  c #7D6E32",
"B  c #0B1C44",
"V  c #0A1C4B",
"C  c #021148",
"Z  c #020955",
"A  c #051954",
"S  c #000745",
"D  c #0F214A",
"F  c #13214D",
"G  c #0F2250",
"H  c #182A58",
"J  c #242C47",
"K  c #2E3441",
"L  c #383946",
"P  c #242F5D",
"I  c #283559",
"U  c #333C54",
"Y  c #000863",
"T  c #001C6A",
"R  c #1F2C71",
"E  c #1A3377",
"W  c #1A3268",
"Q  c #243763",
"!  c #263D74",
"~  c #363566",
"^  c #423947",
"/  c #423F5F",
"(  c #3F4147",
")  c #3C435C",
"_  c #3A4566",
"`  c #384675",
"'  c #464645",
"]  c #454449",
"[  c #4D4D4D",
"{  c #4C474A",
"}  c #514D42",
"|  c #504D49",
" . c #595545",
".. c #444953",
"X. c #474A56",
"o. c #4C505B",
"O. c #545352",
"+. c #585858",
"@. c #595655",
"#. c #645D4A",
"$. c #685D56",
"%. c #714F4D",
"&. c #6A6141",
"*. c #696359",
"=. c #69675D",
"-. c #7B6B56",
";. c #484563",
":. c #4B5367",
">. c #555566",
",. c #59597C",
"<. c #4F5878",
"1. c #654F68",
"2. c #646365",
"3. c #747570",
"4. c #865708",
"5. c #995817",
"6. c #8D4E0E",
"7. c #AB5717",
"8. c #8F6C0C",
"9. c #987002",
"0. c #956412",
"q. c #8F6C19",
"w. c #AB7701",
"e. c #AF7212",
"r. c #895D22",
"t. c #866A28",
"y. c #986629",
"u. c #9F7A33",
"i. c #977925",
"p. c #A46B23",
"a. c #A77926",
"s. c #B47F3B",
"d. c #B0762C",
"f. c #D3701E",
"g. c #C27F28",
"h. c #886D49",
"j. c #84734C",
"k. c #867747",
"l. c #806F52",
"z. c #857458",
"x. c #877B65",
"c. c #738C72",
"v. c #AD8D1E",
"b. c #B2911E",
"n. c #BCA014",
"m. c #BB8224",
"M. c #B08B32",
"N. c #ABA72D",
"B. c #C99300",
"V. c #D49C06",
"C. c #CAAE1E",
"Z. c #EABB17",
"A. c #C0852D",
"S. c #D39325",
"D. c #D49E32",
"F. c #CB9032",
"G. c #CAAE2F",
"H. c #D1B232",
"J. c #D8AB27",
"K. c #E0B320",
"L. c #E5B936",
"P. c #E78F0F",
"I. c #F5C817",
"U. c #FFFB13",
"Y. c #E7C528",
"T. c #EDC838",
"R. c #F9D936",
"E. c #F5D033",
"W. c #F6F13D",
"Q. c #99874F",
"!. c #A58F55",
"~. c #ADA052",
"^. c #9D9572",
"/. c #A28466",
"(. c #C69A48",
"). c #EBB257",
"_. c #C1887F",
"`. c #FAD447",
"'. c #FFE248",
"]. c #FFFE43",
"[. c #F9D672",
"{. c #FDDB68",
"}. c #0F2B86",
"|. c #2339AD",
" X c #543383",
".X c #27458A",
"XX c #34498B",
"oX c #3B518F",
"OX c #344C96",
"+X c #3A4BB4",
"@X c #274FBA",
"#X c #444F95",
"$X c #435494",
"%X c #556898",
"&X c #626184",
"*X c #777D8F",
"=X c #6B6C95",
"-X c #4158B2",
";X c #7555BA",
":X c #4D64A8",
">X c #5274B8",
",X c #6973B7",
"<X c #5B39E3",
"1X c #683FFD",
"2X c #657ADE",
"3X c #9B6C86",
"4X c #6986DA",
"5X c #5B88FF",
"6X c #A78A85",
"7X c #B9A18E",
"8X c #8485A2",
"9X c #8496DC",
"0X c #93A7ED",
"qX c #9192F0",
/* pixels */
"' ' { -.z g z } 7 7 7 7 7 ' ' ' 7 7 7 ' ' 2 1 1 2 2 7 [ 7 8 7 7 ",
"' O.z.f t t 0 + #.7 7 7 8 ' ' ' 7 7 7 ] ' 2 1 1 7 c U - [ +.7 7 ",
"' l.u.d.e.5.g # 3 7 7 7 7 ' ' ' 7 7 ' ' ' 8 x ) v # G W B * ( 7 ",
"' *.h.p.S.7.r.w 3 7 7 7 7 ' ' ' 7 7 7 ' +.k.B.w A .X` E ! ; J 7 ",
"' | x.p.(.e.p.t @ ( 7 7 7 ( ' ' 7 7 ^ ' 2.}.} V.r }.-XE ~ K L L ",
"u L 7 z.y.s.F.r.w [ 6 7 7 u u u 8 &...:.;.I Y m 9.~ ,X.XI : L 6 ",
"7 7 u :.h.g.(.t 6.# u 7 7 7 7 [ z s 2 Z C J J C s #.8 ..! U 8 2 ",
"7 7 L X.OXF.3.r M.b z 7 7 u  .m w d z :X.XQ XXC *.( 8 2 6 6 2 2 ",
"1 1 i a I a./.f.).c.q ^ L  .d # h e.M :XoX<.$X] < 1 1 1 1 1 1 1 ",
"1 1 1 j.w.d.).[.6.M 1.! G & t.q.0.J.&X#XOX+X&X1 1 1 1 1 1 1 1 1 ",
"2 2 2 2 Q.S._.l.^ 3Xh.+ 4 T 5 v.e.[ +XqX4X{ 6 2 2 2 2 2 2 2 2 2 ",
"' ' ' ' @.R.(.1.6X[.C.t # H E b r X.G :.7 | @.=.] O.' ' ' ' ' ' ",
"' ' ' ' ' ~.I.{.D.Z.R.R.8.% T c 9.` XX; < > % & X : ' ' ' ' ' ' ",
"x ^ u 7 ( j.K.].E.7.d.E.b.e 3 j I.z #XV = 5 d 2 G A ' u u u u ( ",
"7 7 7 7 7 *.v.N.G.F.r.y.r.j k z b d ;.F - B 3 w .X=Xu 7 7 7 7 7 ",
"7 7 7 7 7 =.8 & X y j i.a.g n T z t.2X,.D V - . +.] ' 7 7 7 7 7 ",
"2 2 2 2 XX^ X.}.Z 2 u.i.d.8.% |.3. .4X0X,XV O O ^ 7 7 7 7 7 7 7 ",
"2 2 2 2 oXo. X1X<Xb.d.5.R.n., o., @ >.0X4X%XR >.7 7 7 8 7 7 7 7 ",
"2 2 2 2 7 ^.M ;X7XL.m.`.E.e >.2 1 1 1 7 2.*X+.2 6 6 6 6 6 6 6 6 ",
"1 1 > > @ 2 -.Y.U.W.'.L.4.O.1 1 1 < $ < 1 1 1 1 1 1 1 1 1 1 1 1 ",
"1 1 1 1 1 1 v K.].].P.6.( 1 1 1 1 1 1 1 1 1 1 1 1 1 1 1 1 1 1 1 ",
"7 6 7 7 6 2  .w.R.I.A.K I 7 6 7 ' ' ( 8 6 2 1 1 6 7 7 ' ' ' ' ' ",
"' ' ] ' ' 2 $ -.H.!.5X@X( [ ' ' O.+.O.' ' 2 < 1 ' ' [ +.+.+.+.+.",
"' ' ] ' ' 2 1 < 7 >X3Xm 0 =.' ' +.+.O.' ' 2 1 1 ' ' { +.+.+.+.+.",
"@.@.+.+.+.2 < 1 7 Q.w.0   x ' ' ' ' ' ' ' 2 1 1 2 2 6 ' ' ' ' ' ",
"+.+.+.+.+.6 1 1 7 Q.4.t   x ' ' ' ' ' ' ' 2 1 1 2 6 6 ' ' ' ' ' ",
"[ [ O.[ O.2 1 1 8 7 u.x.O 8 ' u u u ' ' ' 2 1 1 2 2 6 ' ' ' ' ' ",
"7 7 7 7 7 1 1 1 2 2 =.>X` ^ 7 7 2 2 6 ' ' 2 1 1 2 2 6 7 7 7 7 7 ",
"7 7 7 7 7 2 1 1 2 2 _ A $X7 7 7 2 6 6 ' ' 2 1 1 2 2 6 7 7 7 7 7 ",
"7 7 7 7 7 2 1 1 2 ..- - X.6 7 7 2 2 6 ' ' 2 1 1 2 2 6 7 7 7 7 7 ",
"7 7 7 7 7 1 1 1 2 :.V o : [ 7 7 2 2 6 ' ' 2 1 1 2 2 6 7 7 7 7 7 ",
"7 8 7 7 7 2 1 1 2 2 ..<.>.7 7 7 2 2 7 ' x 2 1 < 2 2 2 7 7 7 7 7 "
};
