/* XPM */
static char *result[] = {
/* columns rows colors chars-per-pixel */
"32 32 215 2 ",
"   c #040000",
".  c #080909",
"X  c #000014",
"o  c #000912",
"O  c #10151D",
"+  c #2B1708",
"@  c #3C2303",
"#  c #292310",
"$  c #3A2917",
"%  c #03092C",
"&  c #0D1428",
"*  c #030A39",
"=  c #06183B",
"-  c #141B35",
";  c #1C1D26",
":  c #241626",
">  c #1F232F",
",  c #19203A",
"<  c #202020",
"1  c #2C2C2C",
"2  c #292727",
"3  c #352A25",
"4  c #252B3C",
"5  c #292D3E",
"6  c #343434",
"7  c #3C3C3C",
"8  c #3A3836",
"9  c #3B3727",
"0  c #462B03",
"q  c #582B06",
"w  c #4C3408",
"e  c #5C3807",
"r  c #522F17",
"t  c #45381A",
"y  c #683907",
"u  c #4A3D2B",
"i  c #423E37",
"p  c #6C3835",
"a  c #5C451A",
"s  c #634300",
"d  c #684B08",
"f  c #774700",
"g  c #694618",
"h  c #764A16",
"j  c #7C591A",
"k  c #7A520B",
"l  c #7E6219",
"z  c #594929",
"x  c #5D533B",
"c  c #534A3B",
"v  c #6B5A23",
"b  c #6E5321",
"n  c #68593A",
"m  c #6D502E",
"M  c #7D6E32",
"N  c #0B1C44",
"B  c #0A1C4B",
"V  c #021148",
"C  c #020955",
"Z  c #051954",
"A  c #000745",
"S  c #0F214A",
"D  c #19274D",
"F  c #0F2250",
"G  c #182A58",
"H  c #242C47",
"J  c #2E3441",
"K  c #3A3946",
"L  c #242F5D",
"P  c #313B55",
"I  c #2A365D",
"U  c #000863",
"Y  c #001C6A",
"T  c #1F2C71",
"R  c #1A3377",
"E  c #1A3268",
"W  c #243763",
"Q  c #263D74",
"!  c #363566",
"~  c #423845",
"^  c #423F5F",
"/  c #3F4147",
"(  c #3C445A",
")  c #394369",
"_  c #384675",
"`  c #464646",
"'  c #42424C",
"]  c #4D4D4C",
"[  c #4C4849",
"{  c #514D45",
"}  c #5B5546",
"|  c #585247",
" . c #4C4C50",
".. c #4D525B",
"X. c #575554",
"o. c #585858",
"O. c #555659",
"+. c #625D52",
"@. c #6A5957",
"#. c #6C544B",
"$. c #6C6548",
"%. c #78684A",
"&. c #75695A",
"*. c #474763",
"=. c #565A66",
"-. c #575A7C",
";. c #435067",
":. c #645F60",
">. c #654F68",
",. c #5C6375",
"<. c #696864",
"1. c #676673",
"2. c #756E70",
"3. c #747570",
"4. c #865708",
"5. c #995817",
"6. c #8D4E0E",
"7. c #AB5717",
"8. c #8F6C0C",
"9. c #987002",
"0. c #956412",
"q. c #8F6C19",
"w. c #AB7701",
"e. c #AF7212",
"r. c #895D22",
"t. c #866A28",
"y. c #986629",
"u. c #9F7A33",
"i. c #977925",
"p. c #A46B23",
"a. c #A77926",
"s. c #B47F3B",
"d. c #B0762C",
"f. c #D3701E",
"g. c #C27F28",
"h. c #8A6B48",
"j. c #87784B",
"k. c #807051",
"l. c #917D58",
"z. c #867862",
"x. c #738C72",
"c. c #AD8D1E",
"v. c #B2911E",
"b. c #BCA014",
"n. c #BB8224",
"m. c #B58C2E",
"M. c #ABA72D",
"N. c #C99300",
"B. c #D49C06",
"V. c #CAAE1E",
"C. c #EABB17",
"Z. c #C0852D",
"A. c #D39325",
"S. c #D49E32",
"D. c #CB9032",
"F. c #CBAE2E",
"G. c #D8AB27",
"H. c #E0B320",
"J. c #E5B936",
"K. c #E78F0F",
"L. c #F5C817",
"P. c #FFFB13",
"I. c #E7C528",
"U. c #EDC838",
"Y. c #FACF34",
"T. c #F9D936",
"R. c #F2D033",
"E. c #F6F13D",
"W. c #998650",
"Q. c #A38F49",
"!. c #9E9673",
"~. c #A28466",
"^. c #C69A48",
"/. c #EBB257",
"(. c #C1887F",
"). c #FAD447",
"_. c #FFE248",
"`. c #FFFE43",
"'. c #F9D672",
"]. c #FDDB68",
"[. c #0F2B86",
"{. c #2339AD",
"}. c #543383",
"|. c #27458A",
" X c #33478C",
".X c #3D548F",
"XX c #344C96",
"oX c #3A4BB4",
"OX c #274FBA",
"+X c #45508C",
"@X c #444F95",
"#X c #425899",
"$X c #4D628F",
"%X c #516194",
"&X c #686783",
"*X c #676892",
"=X c #4158B2",
"-X c #7555BA",
";X c #4D64A8",
":X c #5274B8",
">X c #636FB6",
",X c #5B39E3",
"<X c #683FFD",
"1X c #657ADE",
"2X c #9B6C86",
"3X c #7A83BE",
"4X c #6986DA",
"5X c #5B88FF",
"6X c #858B9C",
"7X c #A78A85",
"8X c #B9A18E",
"9X c #8485A2",
"0X c #8496DC",
"qX c #93A8ED",
"wX c #9293F0",
/* pixels */
"` ` ` ` ` 1 < < 7 7 ..-.-.` ` ` 8 7 7 ` ` 1 < < 1 1 6 7 8 7 7 7 ",
"` ` ` ` ` 1 < < 7 =.B X , X.` ` 7 7 / ` ` 1 < < 1 1 6 7 7 7 7 7 ",
"` ` ` ` ` 1 < < 7 ..= * =.` ` ` 7 7 7 ` ` 1 < < 1 1 6 7 7 7 7 7 ",
"` ` ` ` ` 1 < < 7 7 ;.Y +X` ` ` 7 7 7 ` ` 1 < < 1 1 1 / 8 7 7 7 ",
"` ` ` ` ` 1 < < 7 7 <.:X_ ] ` ` 7 7 7 ` ` 1 < < 1 1 6 7 7 7 7 7 ",
"7 7 / 7 ` 2 < < 6 6 c.z.O 8 7 7 6 6 7 ` ` 1 < < 7 6 6 6 6 1 6 6 ",
"7 7 7 7 7 2 < < 1 j.4.e   8 7 7 1 1 6 ` ` 1 # < 7 7 6 1 1 1 1 1 ",
"7 7 7 7 7 2 < < 1 Q.w.0   c 7 7 1 1 6 ` ` 1 > < 7 7 7 1 1 1 1 1 ",
"< < < < < < < < < %X9Xn 0 | < < < < < < < < < > > < < < < < < < ",
"< < < < < < < %.F.Q.5XOXH # < < < < < < < < < # < < < < < < < < ",
"1 1 1 1 1 1 } w.T.L.Z.P G 6 1 6 < < < 1 2 1 6 6 2 1 1 1 1 1 1 1 ",
"` ` ` ` ` ` &.H.E.E.K.6.o.o.o.o.< < 2 7 7 ] o.o.` ` ` ` ` ` ` ` ",
"` ` ` ` ` ] l.R.P.E._.J.4.2.X.X.< < 2 7 K X.X.o.` ` ` ` ` ` ` ` ",
"K c 7 7 ] !.p -X8XU.n.).R.q 1.] < < 2 ] 3.6X&X] ` ` ` 7 7 7 7 7 ",
"7 7 7 7 .X..}.<X,Xm.n.5._.b.: ,.> # =.qX4X%XT 1.` ` ` 7 7 7 7 7 ",
"7 7 7 7 .XK *.[.C < a.i.n.0.$ {.3.} 4XqX>XN O O ] ` ` 7 7 7 7 7 ",
"1 1 1 1 1 +.8 % o 9 k i.i.g b Y z M 1X-.S S = . X.7 7 7 7 7 7 7 ",
"1 1 6 1 1 | c.M.F.A.t.y.r.j k z v d ^ S = S 2 w  X*X7 7 7 8 7 7 ",
"2 2 2 2 2 %.H.`.U.7.Z.Y.v.e 9 l L.u @XS % 4 f 3 Z Z 8 6 1 6 6 6 ",
"< > < > # Q.L.].S.C.T.R.8.$ Y x 9.*. X- - > $ % X - < < < < < < ",
"< < < < 6 T.^.>.7X'.F.f @ G R v a ^ B *.> # 3 ~ K 7 # > < < < < ",
"8 8 8 7 Q.A.(.&.~ 2X#.# 4 Y 5 c.e.` oXwX3X( < < 8 7 7 ` ` ` ` ` ",
"` ` ` W.w.d./.'.6.m >.L F * t.q.0.G.&X@XXXoX-.< ` ` ] o.o.o.o.o.",
"` ` +.z ! d.l.f./.x.q :.=.$.d @ h e.m ;X.X$X#X` ` ` ] o.o.o.o.o.",
"o.o.o.,. XD.3.r s.b u ` ` ] X.n w d z ;X|.W  XV @.1 6 ` ] / / ` ",
"o.o.o.,.j.n.m.g 5.0 ` ` ` ` ` X.z s > Z V H H A s } 6 ,._ ( ] ` ",
"] ]  .l.p.Q.^.r.w { 7 K K c / / ` $. .=.) I U n 9.! >X|.W , / ` ",
"7 ` z.y.^.e.7.d # 6 1 1 1 8 8 7 1 6 6 ` <.[.{ B.t [.=XR ) H / 7 ",
"7 +.h.p.A.7.r.w 2 1 1 1 6 8 7 7 1 1 8 ` X.j.N.w Z |. XQ Q - 5 7 ",
"7 %.u.d.7.7.g 0 $ 1 1 1 1 6 7 7 1 1 6 ` ` 8 c ( c @ Z G = & ~ 7 ",
"7 [ k.f y y 0 + | 6 1 1 1 6 7 7 1 1 6 ` ` 1 < < 8 x P - [ O.7 7 ",
"7 8 ~ $.m a z i 1 1 1 1 6 6 7 K 1 1 8 ` ` 1 < < 1 1 7  .7 7 7 7 "
};
