/* XPM */
static char *result[] = {
/* columns rows colors chars-per-pixel */
"32 32 177 2 ",
"   c #010000",
".  c #0A0000",
"X  c #000B0B",
"o  c #1C0101",
"O  c #1B0A0A",
"+  c #0F0F10",
"@  c #091C1C",
"#  c #101515",
"$  c #1E1211",
"%  c #191A1A",
"&  c #230000",
"*  c #2C0202",
"=  c #290E0E",
"-  c #250E0E",
";  c #330000",
":  c #3B0202",
">  c #3C010E",
",  c #300D0D",
"<  c #200F10",
"1  c #360610",
"2  c #2C1313",
"3  c #231C1C",
"4  c #2E1D1D",
"5  c #311314",
"6  c #351A1A",
"7  c #3E1F1F",
"8  c #17201F",
"9  c #020821",
"0  c #130B2D",
"q  c #1A1D28",
"w  c #031937",
"e  c #031038",
"r  c #1A1933",
"t  c #2B0E24",
"y  c #261121",
"u  c #2F1123",
"i  c #281D20",
"p  c #34122B",
"a  c #3A162A",
"s  c #371733",
"d  c #391834",
"f  c #0E2929",
"g  c #132020",
"h  c #122929",
"j  c #1D2E37",
"k  c #202020",
"l  c #2A2424",
"z  c #252D2D",
"x  c #2C2C2C",
"c  c #3C2323",
"v  c #322F2F",
"b  c #332923",
"n  c #282F38",
"m  c #262933",
"M  c #382F30",
"N  c #2C3434",
"B  c #243C3C",
"V  c #333434",
"C  c #35393A",
"Z  c #3C3C3C",
"A  c #3A3535",
"S  c #430102",
"D  c #4C0102",
"F  c #430708",
"G  c #480708",
"H  c #4B0A0D",
"J  c #530203",
"K  c #5C0403",
"L  c #540708",
"P  c #5E0708",
"I  c #540E0E",
"U  c #5E0D0D",
"Y  c #430911",
"T  c #491718",
"R  c #4D1C1C",
"E  c #630302",
"W  c #6C0304",
"Q  c #650709",
"!  c #650809",
"~  c #6E0D0D",
"^  c #740404",
"/  c #7C0404",
"(  c #730708",
")  c #74090A",
"_  c #7B0B0C",
"`  c #750F10",
"'  c #6C1315",
"]  c #7A1212",
"[  c #701313",
"{  c #472324",
"}  c #443A3A",
"|  c #483434",
" . c #6E2221",
".. c #3F403E",
"X. c #031444",
"o. c #0E1C53",
"O. c #2B1E43",
"+. c #03215E",
"@. c #072255",
"#. c #1A2B47",
"$. c #322148",
"%. c #253243",
"&. c #373B47",
"*. c #3B3E43",
"=. c #2F2551",
"-. c #002264",
";. c #022369",
":. c #0F306D",
">. c #012877",
",. c #17387A",
"<. c #242B64",
"1. c #253176",
"2. c #294343",
"3. c #364445",
"4. c #3C4141",
"5. c #454545",
"6. c #484645",
"7. c #494846",
"8. c #444949",
"9. c #4D4D4D",
"0. c #4E5151",
"q. c #595855",
"w. c #585858",
"e. c #6C5253",
"r. c #466060",
"t. c #516A69",
"y. c #546565",
"u. c #6A6B6B",
"i. c #657A7A",
"p. c #830405",
"a. c #8B0404",
"s. c #8C0809",
"d. c #940405",
"f. c #9B0404",
"g. c #920708",
"h. c #920A0B",
"j. c #841213",
"k. c #9E1011",
"l. c #A40404",
"z. c #AC0404",
"x. c #A60C0C",
"c. c #AF0E0E",
"v. c #B30505",
"b. c #BA0505",
"n. c #B30808",
"m. c #C40202",
"M. c #CB0505",
"N. c #C70908",
"B. c #D30606",
"V. c #D00C0C",
"C. c #003089",
"Z. c #09388A",
"A. c #153780",
"S. c #15328A",
"D. c #1A368F",
"F. c #173F93",
"G. c #1B3B97",
"H. c #233D93",
"J. c #233E99",
"K. c #13429D",
"L. c #24449C",
"P. c #1445A4",
"I. c #1949BA",
"U. c #778887",
"Y. c #728584",
"T. c #789595",
"R. c #949A9A",
"E. c #80A2A2",
"W. c #9BACAC",
"Q. c #A0A7A6",
"!. c #ADB6B6",
"~. c #B2B6B6",
"^. c #B5BBBB",
"/. c #B9C1C1",
"(. c #D7E7E6",
"). c #FEFEFE",
"_. c gray90",
/* pixels */
"5.5.5.5.8.x i g Z Z Z Z Z 4.| 6 I H c } 5.x % k x x N Z Z Z Z Z ",
"5.5.5.5.7.x k k Z Z Z 4.{ ) ^ ^ f.l.z.d.^ R z k v x V Z Z Z Z Z ",
"5.5.5.7.7.x k k Z 4.@ J x.n./ f.d./ p.d.v.m.d.O V x V Z Z Z Z Z ",
"7.5.5.5.7.x k k 4.6 h.n.f.z.p.z.z.n.d./ / a.f.a.- C V Z Z Z Z Z ",
"5.5.5.5.5.x 3 k v n.N.l.n.a.s.b.l.l.z.v.n.( L f.z.v V Z Z Z Z Z ",
"5.4.} Z *.x g N E V.l.n.z.! W g.z.n.v.l.( s.v.s.M.K Z V v v N V ",
"Z Z Z Z Z x k M d.l.g.p./ _ g./ _ a.d.( d.B.K ) v.f.} x x v x x ",
"Z Z Z Z Z x l  .h.W p.p.z.p.l.n.d.a.F s.B.*   : b.v.R x x x x x ",
"% k k k g k x _ ) p.b.n.l.s.z.l.b.p.f.d.  2.U.  l.m.J l g k k k ",
"k k k k k 3 v ) f./ v.n.f.W f.l.g.s.b.  h ).^.  p.m.K z k k k i ",
"x x x x x x Z * a.f.^ d._ W s.g.P z.; @ ).).!.  p.v.D V x x x x ",
"5.5.5.5.5.5.5.: . p.Q d.f.f.M.d.p.W   ~.).).!.  ^ ^ S 5.5.5.7.5.",
"5.7.5.5.5.5.9.: 3 # a.l.f.! d.W N.o B ).).).R.  ^ / J 5.5.8.5.7.",
"} *...4.5.5.5.= e.T.  W s.p.( ( l.  W.).).).y.. a./ S 5.4.} *...",
"Z Z Z Z Z *.5.7.  ).i.  / Q Q d.& % ).).)._.h D p./ c Z Z Z Z Z ",
"Z Z Z Z Z 5.5.7.  u.).W.  & L ^   /.).).).Y.. d.E S 3.Z Z Z Z Z ",
"x x v x v x x x 7 . E.(.X D f./   r.W.W.t.  W ] ] U T } 5.Z Z Z ",
"v x x x x x v x 7.J ;   : k.p.a.p.. . &   H k.~ x.g.a.: x Z Z Z ",
"z l x l x z x l V 3 W a.f.f./ a.n.s.! f.j.' ) ( p.; % A } V V V ",
"l g k i 8 c H 5 4 { : H S / p.E a.d.^ L ' ! ` / E p.x 3 k k k % ",
"k 8 k k k O W W D ^ f.s Z.$.d I K D P P _ / ^ l.& d.p.N g k k k ",
"Z Z A Z 4.2 G H D W ^ p C.;.-.p E O P ! K a.Y S C 2 S 5.7.7.5.7.",
"5.5.7.N * D * ^ W o $ n C Z 5.8., ; : W K H o.j 5.8.C w.w.w.w.w.",
"5.6.5.9.} g : K 2 *.5.w.w.9.5.5.6.E ^ ) / u -.m 7.5.9.w.w.w.w.w.",
"q.w.w.w.w.A 6 l Z Z } 5.8.7.*.&.%.> ^ / ^ y A.G.X.5.V 5.5.5.5.5.",
"w.w.q.q.w.v g i Z Z 4.5.q.e S.S.G.F.<.=.r :.L.G.I.#.V 5.7.5.5.7.",
"0.0.0.9.0.x k k Z V A 6.w I.J.H.H.H.Z.>.@.,.P.P.1.> Z 5.4.5.5.5.",
"Z Z Z Z Z x k k x x x b > 1.K.L.o.X q C 4 t s p E ^ } Z Z Z Z Z ",
"Z Z Z A Z x k i x x 3.J l.W a 0 # V A 5.6.: p.f.d.^ { Z Z Z Z Z ",
"Z Z Z Z Z l k g x 4.D p.d.p.J   *.x A 5.0.& ^ p./ f.6 Z Z Z Z Z ",
"Z Z Z Z Z x k k v 5 p.a.p.S o 9.x x V 8.7.A * W a.K 4.Z Z Z Z Z ",
"Z Z Z Z Z x k k v } = = , l 5.Z x m A 5.5.x k * * x x Z Z Z Z Z "
};
