/* XPM */
static char *result[] = {
/* columns rows colors chars-per-pixel */
"32 32 179 2 ",
"   c #010000",
".  c #0A0000",
"X  c #000B0B",
"o  c #1C0101",
"O  c #1B0A0A",
"+  c #1C100F",
"@  c #0F0F10",
"#  c #0C1919",
"$  c #031B1B",
"%  c #121617",
"&  c #181919",
"*  c #230000",
"=  c #2C0101",
"-  c #2C0708",
";  c #2A0E0F",
":  c #240D0D",
">  c #330000",
",  c #3B0202",
"<  c #3C010E",
"1  c #300D0D",
"2  c #360610",
"3  c #231415",
"4  c #2C1314",
"5  c #221B1C",
"6  c #2C1C1C",
"7  c #341213",
"8  c #331919",
"9  c #3A1B1B",
"0  c #020821",
"q  c #130B2D",
"w  c #1A1E29",
"e  c #031038",
"r  c #031A38",
"t  c #1A1933",
"y  c #2B0E24",
"u  c #261121",
"i  c #2F1123",
"p  c #34122B",
"a  c #3A162A",
"s  c #371733",
"d  c #391834",
"f  c #0E2929",
"g  c #132020",
"h  c #122929",
"j  c #202020",
"k  c #2A2526",
"l  c #252B2B",
"z  c #2C2C2C",
"x  c #3C2324",
"c  c #3A302A",
"v  c #272D33",
"b  c #2C3232",
"n  c #2D303A",
"m  c #243C3C",
"M  c #343434",
"N  c #3B3535",
"B  c #3D3937",
"V  c #323338",
"C  c #343A3A",
"Z  c #3C3C3C",
"A  c #430102",
"S  c #4C0102",
"D  c #430708",
"F  c #480708",
"G  c #4B090C",
"H  c #530203",
"J  c #5C0403",
"K  c #540708",
"L  c #5E0708",
"P  c #540E0E",
"I  c #5E0D0D",
"U  c #430911",
"Y  c #4D1010",
"T  c #4B1C1C",
"R  c #471516",
"E  c #501C1D",
"W  c #630302",
"Q  c #6C0304",
"!  c #650709",
"~  c #650809",
"^  c #6E0D0D",
"/  c #740404",
"(  c #7C0404",
")  c #730708",
"_  c #74090A",
"`  c #7B0B0C",
"'  c #750F10",
"]  c #6C1315",
"[  c #7A1212",
"{  c #701313",
"}  c #472324",
"|  c #443435",
" . c #403738",
".. c #493F3F",
"X. c #6F2322",
"o. c #41403F",
"O. c #031444",
"+. c #0E1C53",
"@. c #2B1E43",
"#. c #03215E",
"$. c #072255",
"%. c #182A45",
"&. c #322148",
"*. c #263542",
"=. c #373B47",
"-. c #3C3F42",
";. c #2F2551",
":. c #002264",
">. c #022369",
",. c #0F306D",
"<. c #012877",
"1. c #17387A",
"2. c #242B64",
"3. c #253176",
"4. c #294343",
"5. c #354444",
"6. c #3C4444",
"7. c #464646",
"8. c #494747",
"9. c #494846",
"0. c #434848",
"q. c #4D4D4D",
"w. c #4E5456",
"e. c #595855",
"r. c #585858",
"t. c gray32",
"y. c #6C5253",
"u. c #466060",
"i. c #536867",
"p. c #6A6B6B",
"a. c #657A7A",
"s. c #830405",
"d. c #8B0404",
"f. c #8C0809",
"g. c #940405",
"h. c #9B0404",
"j. c #920708",
"k. c #920A0B",
"l. c #841213",
"z. c #9E1011",
"x. c #A40404",
"c. c #AC0404",
"v. c #A60C0C",
"b. c #AF0E0E",
"n. c #B30505",
"m. c #BA0505",
"M. c #B30808",
"N. c #C40202",
"B. c #CB0505",
"V. c #C70908",
"C. c #D30606",
"Z. c #D00C0C",
"A. c #003089",
"S. c #09388A",
"D. c #153780",
"F. c #15328A",
"G. c #1A368F",
"H. c #173F93",
"J. c #1B3B97",
"K. c #233D93",
"L. c #233E99",
"P. c #13429D",
"I. c #24449C",
"U. c #1445A4",
"Y. c #1949BA",
"T. c #778887",
"R. c #728584",
"E. c #789595",
"W. c #949A9A",
"Q. c #80A2A2",
"!. c #9BACAC",
"~. c #A0A7A6",
"^. c #ADB6B6",
"/. c #B2B6B6",
"(. c #B5BBBB",
"). c #B9C1C1",
"_. c #D7E7E6",
"`. c #FEFEFE",
"'. c gray90",
/* pixels */
"7.7.8.7.7.z j j Z Z Z Z M x Y P 8 | Z 8.7.z g j z z M B Z Z Z Z ",
"7.7.7.7.7.z j g Z C T / g.c.x.x.) / _ } 7.l j j z z M Z Z Z Z Z ",
"7.7.8.7.7.z j z : g.N.n.g.s.( j.h.( n.v.K # k j z z M Z Z Z Z Z ",
"7.7.7.7.7.z z : s.h.d.( s.j.n.c.c.s.c.h.M.j.6 l M z M B Z Z Z Z ",
"7.7.7.8.7.l l c.h.K _ n.m.c.x.x.m.s.f.n.x.V.M.l z z M Z Z  .Z Z ",
"o.o.Z 6...V W C.s.m.f.) x.M.c.c.g.Q ~ c.n.x.Z.W 6.V M M b b M M ",
"Z Z Z Z B | h.n._ J C.j._ g.g.( ( g.` ( s.g.x.g. .Z B z z z z z ",
"Z Z B Z Z R n.n.,   = C.f.D f.j.n.x.s.c.s.s.Q k.X.6.N b z z z z ",
"u j j j k H N.x.  T.4.  h.h.f.m.x.c.f.x.c.m.s.) ` l j g j u j j ",
"g j j j l J N.(   (.`.h   m.s.j.v.h.Q h.n.m.s.h._ b j 5 j j j j ",
"z l z z M S n.(   ^.`.`.$ > c.K f.f.) ) j.( h.f.= Z l z z l z z ",
"9.9.9.9.7.A / (   ^.`.`./.  Q s.g.B.h.h.g.~ s.. , 7.8.7.9.9.9.9.",
"7.7.7.7.7.H / /   W.`.`.`.m o V./ g.Q j.x.d.@ 5 , q.7.7.9.7.7.7.",
"o.o.6.Z 7.A s.g.. i.`.`.`.!.  x.) / f.f.Q   E.y.; 7.7.Z o.o.o.-.",
"Z Z Z Z Z x ( s.H f '.`.`.`.& * g.~ ~ /   a.`.  8.7.6.Z Z Z Z Z ",
"Z Z Z Z Z 5.A J g.. R.`.`.`.).  Q K *   !.`.p.  q.7.7.Z Z Z Z Z ",
"z z z Z B R ~ [ [ Q   i.!.!.u.  ( h.H X _.Q.. 9 Z Z Z Z B Z Z Z ",
"z z z j , g.f.v.^ z.F   * . . f.d.s.k.,   > H 7.Z Z Z Z Z Z Z Z ",
"z l l N M & > ( _ _ ] l.h.Q f.n.f.( h.h.d.Q 5 l M M M N M M M M ",
"j u j j j k s.W ( ' ~ { K / d.f.W s.( D Y , T 6 1 G x g j j u j ",
"j j j j b s.g.* x./ ( ` ! L F W I s &.S.s g./ S Q Q : g j j j j ",
"Z Z B C B A 4 b D U d.J ~ K o W p :.>.A.p ( Q H G F 4 q.0.0.7.7.",
"7.7.7.7.q.l z j *.:.G J Q , > 1 w.q.-.V v + o Q / - H = C r.e.e.",
"7.9.7.9.9.z g j n +.i ( _ ( W  .e.e.t.7.7.l l 3 J , l o.r.r.r.e.",
"e.r.r.r.r.M Z O.G.D.u / s./ 2 *.=.-.9.7.8.z j j k 9 Z 7.7.7.7.7.",
"r.r.r.r.r.b %.Y.K.I.,.t &.2.H.J.F.F.e e.8.z j 5 z z M 7.7.7.7.7.",
"q.q.q.q.q.Z < 3.U.U.1.$.<.S.K.K.K.L.Y.r q.z j j z z N 7.Z 7.7.7.",
"-.Z o.Z Z | / W p @.y 5 v w 0 +.I.P.3.< c z j j z z M Z Z Z Z Z ",
"Z Z Z Z Z } / d.h.s., B z M o.% q a Q x.H C j j z z M Z Z Z Z Z ",
"Z Z Z Z Z 8 h.s.s./ * Z z Z Z 7.  H s.g.d.S C g z l M Z Z Z Z Z ",
"Z Z Z Z Z Z J d.Q = N z z Z Z Z 6.* A s.d.s.7 j z z M Z Z Z Z Z ",
"Z Z Z Z Z l k = - l M z z M Z B z M k 7 ; 4 N j z z z Z Z Z Z Z "
};
