/* XPM */
static char *result[] = {
/* columns rows colors chars-per-pixel */
"32 32 178 2 ",
"   c #010000",
".  c #0A0000",
"X  c #000B0B",
"o  c #1C0101",
"O  c #1D0C0C",
"+  c #1D100F",
"@  c #0F0F10",
"#  c #031B1B",
"$  c #121617",
"%  c #111E1E",
"&  c #1B1C1C",
"*  c #230000",
"=  c #2C0202",
"-  c #280D0E",
";  c #250E0E",
":  c #330000",
">  c #3B0202",
",  c #3C010E",
"<  c #300D0D",
"1  c #200F10",
"2  c #360610",
"3  c #2D1516",
"4  c #241D1D",
"5  c #321414",
"6  c #381719",
"7  c #341919",
"8  c #391D1D",
"9  c #2F251F",
"0  c #020821",
"q  c #130B2D",
"w  c #1B1E29",
"e  c #021836",
"r  c #031038",
"t  c #1A1933",
"y  c #2B0E24",
"u  c #261121",
"i  c #2F1123",
"p  c #281D20",
"a  c #34122B",
"s  c #3A162A",
"d  c #371733",
"f  c #391834",
"g  c #0E2929",
"h  c #132020",
"j  c #122929",
"k  c #1B2327",
"l  c #1D2E37",
"z  c #202020",
"x  c #262D2D",
"c  c #2C2C2C",
"v  c #272527",
"b  c #302021",
"n  c #39292A",
"m  c #31312F",
"M  c #262933",
"N  c #2F3030",
"B  c #2B393D",
"V  c #333434",
"C  c #3A3434",
"Z  c #303837",
"A  c #393A36",
"S  c #35393A",
"D  c #3C3C3C",
"F  c #313439",
"G  c #430102",
"H  c #4C0102",
"J  c #430708",
"K  c #480708",
"L  c #4B0A0D",
"P  c #530203",
"I  c #5C0403",
"U  c #540708",
"Y  c #5E0708",
"T  c #540E0E",
"R  c #5E0D0D",
"E  c #430911",
"W  c #491718",
"Q  c #4F1B1B",
"!  c #630302",
"~  c #6C0304",
"^  c #650709",
"/  c #650809",
"(  c #6E0D0D",
")  c #740404",
"_  c #7C0404",
"`  c #730708",
"'  c #74090A",
"]  c #7B0B0C",
"[  c #750F10",
"{  c #6C1315",
"}  c #7A1212",
"|  c #701313",
" . c #442223",
".. c #492929",
"X. c #413B3A",
"o. c #463132",
"O. c #6F2221",
"+. c #41403E",
"@. c #031444",
"#. c #0E1C53",
"$. c #2B1E43",
"%. c #03215E",
"&. c #072255",
"*. c #182A45",
"=. c #322148",
"-. c #253243",
";. c #2F2551",
":. c #002264",
">. c #022369",
",. c #0F306D",
"<. c #012877",
"1. c #17387A",
"2. c #242B64",
"3. c #253176",
"4. c #294343",
"5. c #3C4243",
"6. c #3C4B4A",
"7. c #454646",
"8. c #494444",
"9. c #434848",
"0. c #4D4E4E",
"q. c #534D4D",
"w. c #4E5353",
"e. c #585858",
"r. c #6C5253",
"t. c #466060",
"y. c #516A69",
"u. c #546565",
"i. c #6A6B6B",
"p. c #657A7A",
"a. c #830405",
"s. c #8B0404",
"d. c #8C0809",
"f. c #940405",
"g. c #9B0404",
"h. c #920708",
"j. c #920A0B",
"k. c #841213",
"l. c #9E1011",
"z. c #A40404",
"x. c #AC0404",
"c. c #A60C0C",
"v. c #AF0E0E",
"b. c #B30505",
"n. c #BA0505",
"m. c #B30808",
"M. c #C40202",
"N. c #CB0505",
"B. c #C70908",
"V. c #D30606",
"C. c #D00C0C",
"Z. c #003089",
"A. c #09388A",
"S. c #153780",
"D. c #15328A",
"F. c #1A368F",
"G. c #173F93",
"H. c #1B3B97",
"J. c #233D93",
"K. c #233E99",
"L. c #13429D",
"P. c #24449C",
"I. c #1445A4",
"U. c #1949BA",
"Y. c #778887",
"T. c #728584",
"R. c #789595",
"E. c #949A9A",
"W. c #80A2A2",
"Q. c #9BACAC",
"!. c #A0A7A6",
"~. c #ADB6B6",
"^. c #B2B6B6",
"/. c #B5BBBB",
"(. c #B9C1C1",
"). c #D7E7E6",
"_. c #FEFEFE",
"`. c gray90",
/* pixels */
"7.7.7.7.7.c z z D D D D D 7.7.7.-.X.+.8.7.c z z c c V A D D A D ",
"7.7.7.7.7.V k p D D D D A 7.7.7.+.+.7.7.7.c z z c c V D D D D D ",
"7.7.7.7.7.c & 9 D D D D D 7.7.7.D D D 7.7.c z z c c V D D D D D ",
"7.7.7.7.7.c k & D A D D D 7.c 0.D A 7.7.7.c z & c c V D D D D D ",
"7.7.7.7.7.c 4 z D X.D D D +.> 8.D D 7.7.7.Z c v m n m D D D D A ",
"+.9.6  .+.A z z V x G a.m & f.W B 8 G P G H I P Q X.-.m V V N V ",
"V ! g.) ) , *.X.c Z 5 f.a.: j.R G a.a.` ` b.M.M.n.g.! c S c c c ",
"= a.a.s.! 3.U.@.V c Z * ! _ c.} I a.s.) _ a.a.g.n.n.N.x.- F c c ",
"= ! a.g.d I.H.F.M l G z._ ' ( } f.H .           > ` s.g.a.O z 9 ",
"v = ) a.$.I.P.1.%.%.E ) [ [ l.~ . g u.E.~.~./.Y.  I b.U g.f.k w ",
"c C * > y 1.,.3 y L s._ / { L   T.`._._._._._.4.= V.s.` s.M.Q c ",
"7.7.0.8.p #.t ) _ I I ] | k.  y._._._._._._.j   V.f.' b._ b.) 9.",
"7.7.7.7.S <.;.a.) ` / ^ P g.* Q._._._._.^.#   f.a.` x.m._ h.f.D ",
"7.+.D 7.w A.2.) ` > U ^ ) ! . Q._._.Q.B   : n.c.J f.b.x.f.a.b.n ",
"A D D X.0 J.G.2 ! : o H f.s.. t.(.%   o ~ m.a.a.s.d.x.z.x._ z.L ",
"D D 7.$ #.J.H.-.A < ! I s.m.a.    o z.N.a.U g.n.f.] m.z.x.g.g.T ",
"c 7.  q L.J.D.F D 5.a T ! s.s._ ) s.` ` f.h.z.z.m._ f.n.x.g.` 7 ",
"Z o P s L.K.D.Z D D :.f a.] a.g.U ^ ` f.B.s.g.x.z.h./ s.a._ ) o.",
"4 G s.~ 3.U.r m V V :.=._ g.l.P * / a.~ g.` ` d.s.] / s.x.b.' A ",
"< a.f.z.G e D z 4 v Z.A.J g., X   _ d.g.g.' g.z.z.a.x.x.g.c. .& ",
"- s.s.P 9 c z z k k a d L s.  ).Q.  ~ z.h.f.b.x.a.a.n.z.m.U x 4 ",
"3 a.H 6.D v z z V O ) g.G ! : R._.p.  s./ _ b.n.a.f.g.B.j.% 7.7.",
"q.5 w.7.7.c k 4 5.* ! _ ..9 P . i._.R.@ a.g.a.a.) z.C.v.b e.e.e.",
"7.7.7.7.7.c 4 4 4 ! H H n 0.q.s     r.4 . s.g.' j.s.^ A e.e.e.e.",
"e.e.e.e.e.N & v I ` H ~ 6 7.7.7.8.7.3 > > = ' ] O.C 5.9.7.7.7.7.",
"e.e.e.e.e.V 9 6 > = L ! L 8.7.7.7.7.7.7.7.D x x m c V 8.7.7.7.7.",
"q.q.w.0.0.c & x k P 3 O o.7.7.7.7.D 7.7.7.c z z c c V 8.-.7.7.7.",
"D D D D D c z & n = S c c A A A c c V 7.7.c z z c m m D +.D D D ",
"D D D D D v k 4 D v c m c V D D c c V 7.7.c z z c c N D X.+.D D ",
"D D A D D c & 9 c c c c c C D D c c A 7.7.c z z c c V D X.X.D D ",
"D D D D D v k & c m c c c S D D c m V 7.7.c z z c c V D D D D D ",
"D D D D D x & 9 c c c c m S D D c c S 7.7.c z z c c N D D D D D "
};
