/* XPM */
static char *result[] = {
/* columns rows colors chars-per-pixel */
"32 32 180 2 ",
"   c #010000",
".  c #0A0000",
"X  c #000B0B",
"o  c #1C0101",
"O  c #1E0D0D",
"+  c #1D100F",
"@  c #0F0F10",
"#  c #081A1A",
"$  c #121617",
"%  c #1E1C1C",
"&  c #131C1B",
"*  c #230000",
"=  c #2C0101",
"-  c #2D0B0C",
";  c #260D0D",
":  c #330000",
">  c #3B0202",
",  c #3C010E",
"<  c #300D0D",
"1  c #360610",
"2  c #251313",
"3  c #2C1414",
"4  c #221719",
"5  c #281C1D",
"6  c #381719",
"7  c #391C1C",
"8  c #331717",
"9  c #020821",
"0  c #130B2D",
"q  c #1A1D28",
"w  c #031038",
"e  c #031A38",
"r  c #1A1933",
"t  c #2B0E24",
"y  c #261121",
"u  c #2F1123",
"i  c #34122B",
"p  c #3A162A",
"a  c #371733",
"s  c #391834",
"d  c #0E2929",
"f  c #132020",
"g  c #1F2323",
"h  c #122929",
"j  c #1D2E37",
"k  c #202020",
"l  c #2C2727",
"z  c #252A2C",
"x  c #2C2C2C",
"c  c #392F2F",
"v  c #362828",
"b  c #3A302A",
"n  c #34342F",
"m  c #282F38",
"M  c #262933",
"N  c #382F30",
"B  c #2F3534",
"V  c #243C3C",
"C  c #343434",
"Z  c #3C3636",
"A  c #333A3A",
"S  c #3C3C3C",
"D  c #430102",
"F  c #4C0102",
"G  c #430708",
"H  c #480708",
"J  c #4B0A0C",
"K  c #530203",
"L  c #5C0403",
"P  c #540708",
"I  c #5E0708",
"U  c #540D0E",
"Y  c #5E0D0D",
"T  c #430911",
"R  c #491718",
"E  c #4B1B1C",
"W  c #501B1C",
"Q  c #630302",
"!  c #6C0304",
"~  c #650709",
"^  c #650809",
"/  c #6E0D0D",
"(  c #740404",
")  c #7C0404",
"_  c #730708",
"`  c #74090A",
"'  c #7B0B0C",
"]  c #750F10",
"[  c #6C1315",
"{  c #7A1212",
"}  c #701313",
"|  c #472627",
" . c #492324",
".. c #463131",
"X. c #423E3F",
"o. c #6E2221",
"O. c #3F403E",
"+. c #41403E",
"@. c #031444",
"#. c #0E1C53",
"$. c #2B1E43",
"%. c #03215E",
"&. c #072255",
"*. c #1A2B47",
"=. c #322148",
"-. c #233041",
";. c #373B47",
":. c #3C3F42",
">. c #2F2551",
",. c #002264",
"<. c #022369",
"1. c #0F306D",
"2. c #012877",
"3. c #17387A",
"4. c #242B64",
"5. c #253176",
"6. c #294343",
"7. c #364343",
"8. c #3F4646",
"9. c #454646",
"0. c #4A4141",
"q. c #494846",
"w. c #4E4E4E",
"e. c #444A4B",
"r. c #595855",
"t. c #595959",
"y. c #575B5B",
"u. c #6C5253",
"i. c #466060",
"p. c #536867",
"a. c #6A6B6B",
"s. c #657A7A",
"d. c #830405",
"f. c #8B0404",
"g. c #8C0809",
"h. c #940405",
"j. c #9B0404",
"k. c #920708",
"l. c #920A0B",
"z. c #841213",
"x. c #9E1011",
"c. c #A40404",
"v. c #AC0404",
"b. c #A60C0C",
"n. c #AF0E0E",
"m. c #B30505",
"M. c #BA0505",
"N. c #B30808",
"B. c #C40202",
"V. c #CB0505",
"C. c #C70908",
"Z. c #D30606",
"A. c #D00C0C",
"S. c #003089",
"D. c #09388A",
"F. c #153780",
"G. c #15328A",
"H. c #1A368F",
"J. c #173F93",
"K. c #1B3B97",
"L. c #233D93",
"P. c #233E99",
"I. c #13429D",
"U. c #24449C",
"Y. c #1445A4",
"T. c #1949BA",
"R. c #778887",
"E. c #728584",
"W. c #789595",
"Q. c #949A9A",
"!. c #80A2A2",
"~. c #9BACAC",
"^. c #A0A7A6",
"/. c #ADB6B6",
"(. c #B2B6B6",
"). c #B5BBBB",
"_. c #B9C1C1",
"`. c #D7E7E6",
"'. c #FEFEFE",
"]. c gray90",
/* pixels */
"9.9.9.9.9.x k k S Z S S S 9.9.9.S S :.q.9.x k k x x C Z S S S S ",
"9.9.q.9.9.x k k S S S S A 9.9.9.S S X.9.9.x 5 g x x C S S S S S ",
"9.9.9.9.e.x k k S S S S S 8.9.9.S S S q.9.x g % x x C S S S S S ",
"9.q.9.9.9.x g y S S S S S 0.9.9.S Z 8.9.9.x g C x x B S S Z S S ",
"9.9.9.9.9.x k k Z S S S S 9.q.9.S S 8.9.9.C = v x x C S S S S S ",
"S 8.O.O.O.z k k B C C S S S 8.S C C Z ..+ 3 F & S C C C B C C B ",
"S S S S O.z k k A A S S 0.A A S x x C J ! H = > 7 S A x x x x x ",
"S S S S S A b o.' ` = > > ; 0.8.x x C 6 ! J _ Q N S Z x x x x x ",
"5 g g l l Q f.l.) j.f.. 5 u.    6 S k 5 F P Q 2 k k k k k k k k ",
"g % k 5 n.A.c.( d.) c.d.@ W.'.a.. K 5 E _ Q o x % k k k k A 3 Z ",
"x x # l.C.c.l.d.M.m._ ^ f.  s.'.!.: ! > j.( + C x x x z 7.F d.- ",
"9.8.P N.c.N.d.d.m.m.k.k.c.!   ~.`.  f.J a i m t.9.9.w.b K d.f.- ",
"9. .b.j.m.v.) v.c.j.' j.j.g.)   X > j.> D.S.A t.9.r.e , c.j.d.< ",
"S ` m.v.f.Q ) g.g.! ! j.! d.^ * K j.j.) =.<.S w.q.w T.5.! d.D l ",
".._ ) d.d.! k.c.v.j.g.V.k._ ^ P j.d.' d.a ,.0.9.:.G.P.I.p K o 0.",
"8 _ j.v.M.k.) N.c.c.k.k.! ` k.( ) f.f.Q U i e.9.;.G.L.U.0   e.S ",
"U j.h.v.c.v.) k.M.k.I d.C.c.*     g.N.g.L Q < n m K.P.#.$ 9.S S ",
"J v.) N.c.N.f.f.d.g.v.Q o   f _.i.. f.f.P o = Q 1 I.P.X X.S S S ",
"7 v.d.k.v.N.k.G j.M.:   V ~.'.'.~.. Q ) I P > ) ( 4.D.q C C N C ",
"x h.k.d.M.c.! g.k.. # (.'.'.'.'.~.* j.P ~ ^ ! _ d.>.2.z % g 5 q ",
"z ( m.) N.( k.Z.  h '.'.'.'.'.'.p.  z.} ' I L ) ( r &.4 C C % k ",
"Z E B.f.( g.Z.= 6.'.'.'.'.'.].E.  J [ ^ ) f.T u y 1.3.t > * X.9.",
"9.A h.j.P m.Q   R.)././.Q.p.d . ! x.` ` ( T #.,.3.U.Y.$.d.( = Z ",
"q.9.2 d.k.g.` >           . K h.{ / ` ' c.D j M H.P.I.i j.d.! - ",
"t.t.y.3 v.V.m.M.c.) d.) ( h.f.L { b.d.Q o B g l @.T.5.Q h.) f.= ",
"t.t.t.y.Z Q j.m.B.B.N._ ) ) ) D Y k.: ) k.3 z k q.*., ( ( j.Q C ",
"w.w.w.w.w.A c R K L F F K > v 7.R h.% N d.D k k x x X.9.| 7 e.0.",
"S S S S S z % 5 B A C A C S Z X.X.: S q.9.C k g x x C Z S S S A ",
"S S S S S l k k x x x x x Z S S C k +.q.9.x 5 g x x C S S S S S ",
"S S S S S x k k x x x x x C S S x x C 9.9.x g % x x C S S S S S ",
"S S A S S l k k x x B x x A S S x x C q.9.x k k z x B S S S S S ",
"Z S S S S x g % x x x x x Z S X.x x C 9.q.x k k x x C S S S S Z "
};
